<?xml version="1.0" encoding="utf-8"?>
<!-- Generator: Adobe Illustrator 16.0.0, SVG Export Plug-In . SVG Version: 6.00 Build 0)  -->
<!DOCTYPE svg PUBLIC "-//W3C//DTD SVG 1.1//EN" "http://www.w3.org/Graphics/SVG/1.1/DTD/svg11.dtd">
<svg version="1.1" id="Layer_1" xmlns="http://www.w3.org/2000/svg" xmlns:xlink="http://www.w3.org/1999/xlink" x="0px" y="0px"
	 width="612px" height="792px" viewBox="0 0 612 792" enable-background="new 0 0 612 792" xml:space="preserve">
<g>
	<path fill="#FFFFFF" d="M490.915,463.177h-33.589c-9.323,0-16.854,7.53-16.854,16.854v117.619H104.231V261.527h151.326
		c9.324,0,16.854-7.53,16.854-16.854v-33.588c0-9.323-7.53-16.854-16.854-16.854H87.497c-27.851,0-50.442,22.591-50.442,50.442
		v369.83c0,27.851,22.591,50.442,50.442,50.442l0,0h369.829c27.852,0,50.442-22.592,50.442-50.442l0,0V480.03
		C507.769,470.707,500.238,463.177,490.915,463.177z M549.725,127.055H415.252c-22.473,0-33.708,27.253-17.811,43.031l37.533,37.533
		L178.938,463.654c-9.921,9.802-9.921,25.819-0.12,35.621c0,0,0,0,0.12,0.119l23.787,23.787c9.801,9.921,25.819,9.921,35.62,0.119
		c0,0,0,0,0.12-0.119l255.916-256.036l37.533,37.533c15.778,15.778,43.031,4.781,43.031-17.81V152.276
		C574.945,138.291,563.709,127.055,549.725,127.055z"/>
</g>
</svg>
