<svg width="65" height="10" fill="none" xmlns="http://www.w3.org/2000/svg"><path d="M1.006 5.589a1.5 1.5 0 001.988 2.247L1.006 5.589zM31 4.206l.626-1.364L31 4.206zm32.653 1.35a1.5 1.5 0 10-1.306-2.7l1.306 2.7zm-60.66 2.28c.879-.777 2.416-1.615 4.49-2.352 2.046-.727 4.511-1.32 7.157-1.662 5.325-.69 11.179-.343 15.734 1.747l1.252-2.727C26.374.432 19.894.116 14.255.847c-2.837.367-5.512 1.005-7.777 1.81C4.24 3.453 2.295 4.45 1.006 5.59l1.988 2.247zm27.381-2.267c5.622 2.58 17.16 7.786 33.28-.013l-1.307-2.7c-14.882 7.2-25.343 2.454-30.721-.014L30.374 5.57z" fill="#F06822"/></svg>